<svg xmlns="http://www.w3.org/2000/svg" width="23" height="23" viewBox="0 0 23 23">
  <defs>
    <style>
      .cls-1 {
        fill: #bf2426;
        fill-rule: evenodd;
      }
    </style>
  </defs>
  <path id="Фигура_1" data-name="Фигура 1" class="cls-1" d="M609.368,849.367a11.5,11.5,0,1,1,0,16.266A11.513,11.513,0,0,1,609.368,849.367Zm15.519,15.519a10.446,10.446,0,1,0-14.774,0A10.458,10.458,0,0,0,624.887,864.886Zm-12.84-10.853,1.987-1.987,3.466,3.466,3.466-3.466,1.988,1.987-3.466,3.466,3.466,3.466-1.988,1.988-3.466-3.466-3.465,3.465-1.987-1.988,3.465-3.465Z" transform="translate(-606 -846)"/>
</svg>
